<?xml version="1.0" encoding="utf-8"?>
<!-- Svg Vector Icons : http://www.onlinewebfonts.com/icon -->
<!DOCTYPE svg PUBLIC "-//W3C//DTD SVG 1.1//EN" "http://www.w3.org/Graphics/SVG/1.1/DTD/svg11.dtd">
<svg version="1.1" xmlns="http://www.w3.org/2000/svg" xmlns:xlink="http://www.w3.org/1999/xlink" x="0px" y="0px" fill="white" viewBox="0 0 1000 1000" enable-background="new 0 0 1000 1000" xml:space="preserve">
<metadata> Svg Vector Icons : http://www.onlinewebfonts.com/icon </metadata>
<g><g transform="translate(0.000000,512.000000) scale(0.100000,-0.100000)"><path d="M4559.3,5003.6c-1389.2-135.9-2636.9-840-3488.4-1969C632.8,2451,317,1733.4,183.1,1013.9c-246.8-1337.5,59.3-2663.6,878.3-3809.8l70.8-97.6l-53.6-103.3c-72.7-141.6-74.6-344.4-5.7-486.1c59.3-122.5,193.3-256.4,315.7-315.7c143.5-68.9,344.4-67,486,7.7l103.3,53.6l59.3-44c470.7-352.1,1073.5-648.7,1647.5-811.3c333-95.7,910.8-181.8,1220.8-181.8h89.9v149.2v151.2l-243,11.5c-631.5,32.5-1211.3,183.7-1775.8,463.1c-260.2,128.2-600.8,336.8-742.4,453.5l-55.5,45.9l32.5,99.5c137.8,417.1-323.4,878.3-740.5,740.5l-99.5-32.5l-45.9,55.5c-210.5,256.4-535.8,857.3-664,1230.4c-181.8,528.1-248.8,930-248.8,1521.3c0,602.8,59.3,970.2,241.1,1511.7C1103.5,2960,2161.7,4018.2,3493.5,4465.9c472.6,158.8,828.6,223.9,1322.2,244.9c2037.9,80.4,3880.6-1174.9,4521.7-3084.6c149.3-443.9,218.1-803.7,243-1266.8l13.4-235.4h153.1H9900l-13.4,235.4c-59.3,1039.1-434.4,2016.9-1085,2826.3C8022.8,4154,6918.7,4783.6,5665.4,4974.9C5424.3,5011.3,4806.2,5026.6,4559.3,5003.6z M1815.3-2987.3c84.2-63.2,122.5-155,112.9-281.3c-11.5-191.4-126.3-289-325.3-275.6c-191.4,11.5-288.9,126.3-275.6,325.3c7.7,126.3,49.7,197.1,149.3,248.8C1562.7-2924.1,1740.7-2933.7,1815.3-2987.3z"/><path d="M4995.6,4261.2V4110l225.8-11.5c784.6-44,1504-306.2,2152.7-782.6c70.8-53.6,132.1-93.8,133.9-89.9c3.8,3.8,45.9,57.4,95.7,116.7l89.9,107.1l-80.4,67c-457.3,367.4-1148.1,679.3-1777.7,805.6c-241.1,47.8-579.8,88-748.2,88h-91.8V4261.2z"/><path d="M4614.8,3777.1c-88-9.6-246.8-34.4-354-57.4c-200.9-40.2-696.5-195.2-746.3-233.4c-24.9-21.1-21-38.3,28.7-145.4c30.6-68.9,59.3-128.2,63.1-132c5.8-3.8,84.2,22.9,178,59.3c595.1,231.5,1278.2,285.1,1932.7,147.3C6890,3170.5,7858.2,2288.3,8208.4,1146C8329,751.8,8373,399.7,8357.7-9.8c-19.1-434.4-86.1-744.3-252.6-1153.8c-49.7-124.4-88-229.6-84.2-231.5c24.9-21.1,225.8-126.3,241.1-126.3c26.8,0,158.8,306.2,233.5,537.7c447.8,1416-5.8,2954.5-1155.8,3917C6576.2,3572.3,5590.7,3878.5,4614.8,3777.1z"/><path d="M4718.2,3174.3c-524.3-76.5-876.4-185.6-1199.8-371.2l-126.3-72.7l-67,44c-233.5,160.7-530.1,126.3-740.5-86.1c-130.1-128.2-179.9-246.8-179.9-421c-1.9-118.6,7.6-160.7,51.7-250.7l53.6-105.2l-76.5-116.7C2060.3,1232.1,1874.6,459,1953.1-201.2c32.5-269.8,116.7-631.5,149.3-631.5c5.7,0,70.8,19.1,141.6,42.1c116.7,38.3,130.1,47.8,120.6,82.3c-5.7,21.1-34.4,133.9-61.2,248.8c-47.8,191.3-51.7,244.9-51.7,583.6c0,405.7,26.8,581.7,133.9,893.6c76.5,223.9,323.4,694.6,363.6,694.6c5.7,0,53.6-13.4,105.2-30.6c342.5-112.9,748.2,195.2,752,566.4c1.9,68.9-5.7,151.2-13.4,185.6l-15.3,61.2l149.3,76.5c220.1,109.1,357.8,162.7,572.1,218.1c1238,325.3,2539.2-244.9,3126.7-1366.3c53.6-103.3,101.4-189.4,105.2-189.4c38.3,0,258.3,107.2,258.3,126.3c0,42.1-149.3,311.9-273.6,493.7c-174.1,258.3-543.5,620-817.1,801.8c-520.5,344.4-1029.5,505.2-1636.1,520.5C4905.7,3180,4750.7,3178.1,4718.2,3174.3z M3193.1,2523.7c84.2-63.1,122.5-155,112.9-281.3c-11.5-191.4-126.3-288.9-325.3-275.6c-191.4,11.5-288.9,126.3-275.6,325.3c7.7,126.3,49.7,197.1,149.3,248.8C2940.5,2586.9,3118.4,2577.3,3193.1,2523.7z"/><path d="M4995.6,2422.3v-155h91.8c49.8,0,168.4-13.4,262.2-28.7c773.1-124.4,1402.6-650.6,1666.7-1395c44-124.4,47.9-153.1,24.9-164.6c-158.8-89.9-275.6-227.7-331.1-388.4c-89.9-264.1,45.9-560.7,331.1-721.4c22.9-11.5,19.1-40.2-24.9-164.6c-187.5-528.1-556.8-947.2-1050.5-1194.1c-907-455.4-2018.8-218.1-2646.4,562.6c-137.8,172.2-310,495.6-369.3,694.6c-49.8,168.4-97.6,443.9-97.6,562.6v93.8h-155h-156.9l13.4-166.5c80.4-977.8,727.1-1815.9,1657.1-2145.1c279.4-97.6,455.4-126.3,784.6-126.3c329.1,0,503.2,28.7,784.5,126.3c721.4,252.6,1301.2,836.2,1538.5,1546.1c26.8,78.5,59.3,149.3,72.7,155c281.3,126.3,357.8,187.5,447.8,365.5c158.8,311.9-19.1,704.2-375.1,824.7c-97.6,32.5-89.9,21-172.2,252.6C6974.2,1844.4,6122.7,2487.4,5164,2565.8l-168.4,13.4V2422.3z M7479.4,380.5c84.2-63.1,122.5-155,112.9-281.3C7580.8-92.1,7466-189.7,7267-176.3C7075.6-164.8,6978-50,6991.4,149c7.7,126.3,49.8,197.1,149.3,248.8C7226.8,443.7,7404.8,434.1,7479.4,380.5z"/><path d="M1689,1716.2c-484.1-1019.9-486-2158.5-3.8-3159.2C2349.2-2817,3792-3658.9,5267.3-3534.5c447.8,38.3,876.4,145.4,1236.1,311.9l158.8,72.7l-68.9,135.9l-67,133.9l-55.5-26.8c-111-57.4-438.2-179.9-589.4-220.1c-262.1-68.9-461.2-99.5-752-111c-1341.4-53.6-2552.6,656.3-3149.7,1846.6C1618.2-666.1,1534,185.4,1742.6,1002.5c47.8,185.6,166.5,497.5,248.8,650.6c32.5,57.4,57.4,111,57.4,118.6c0,17.2-222,151.2-246.8,151.2C1794.3,1922.9,1742.6,1831,1689,1716.2z"/><path d="M8851.4,1660.7c-63.1-26.8-122.5-53.6-130.1-63.1c-9.6-7.7,9.6-91.8,42.1-183.7c156.9-461.2,200.9-748.2,200.9-1289.7c0-459.2-19.1-621.9-114.8-1004.6c-111-440.1-359.8-968.2-612.3-1305l-45.9-61.2l-109.1,40.2c-438.2,155-910.8-317.6-755.8-755.8l40.2-109.1l-61.2-45.9C6865.1-3448.4,6249-3701,5617.5-3812c-269.8-45.9-974-45.9-1243.8,0c-457.3,80.4-792.2,191.3-1192.1,396.1L2929-3285.8l-76.5-126.3l-76.5-128.2l72.7-44c38.3-24.9,166.5-89.9,281.3-145.4c1383.5-669.7,2990.8-551.1,4282.5,317.7l168.4,114.8l89.9-44c128.2-63.2,340.6-63.2,472.7,1.9c122.5,59.3,256.4,193.3,315.7,315.7c65.1,132.1,65.1,344.4,1.9,472.6l-44,89.9l114.8,168.4c687,1021.8,910.9,2246.5,623.8,3431c-47.9,202.8-155,535.8-178,556.8C8971.9,1700.9,8914.5,1685.6,8851.4,1660.7z M8091.7-2528c84.2-63.2,122.5-155,112.9-281.3c-11.5-191.3-126.3-288.9-325.3-275.5c-191.4,11.5-289,126.3-275.6,325.3c7.7,126.3,49.8,197.1,149.3,248.8C7839.1-2464.9,8017.1-2474.4,8091.7-2528z"/><path d="M4746.9,1318.2c-342.5-72.7-681.2-340.6-840-658.3c-178-363.6-178-708,0-1071.6c112.9-227.7,325.3-440.1,553-553c363.6-178,708-178,1071.6,0c227.7,112.9,440.1,325.3,553,553c178,363.6,178,708,0,1071.6c-112.9,227.7-325.3,440.1-553,553C5267.3,1341.1,5014.8,1377.5,4746.9,1318.2z M5234.8,1013.9c407.6-107.2,679.3-461.2,679.3-889.8c0-518.6-399.9-918.5-918.5-918.5c-518.6,0-918.5,399.9-918.5,918.5C4077.1,734.6,4641.6,1167,5234.8,1013.9z"/><path d="M4890.4,403.5c-32.5-13.4-86.1-55.5-118.6-93.8C4658.8,179.6,4670.3,26.6,4804.3-94c132-120.6,285.1-109.1,409.5,26.8c114.8,128.2,111,279.4-13.4,398C5098.9,428.4,5001.4,451.4,4890.4,403.5z"/><path d="M709.3,30.4c0-434.4,133.9-1063.9,325.3-1536.6c93.8-229.6,283.2-593.2,304.3-581.7c5.7,1.9,65,36.3,128.2,74.6l118.6,70.8L1455.6-1688c-267.9,520.5-401.8,1016.1-434.4,1588.2l-11.5,223.9H858.6H709.3V30.4z"/><path d="M7473.6-1077.5C7064.1-1925.2,6271.9-2495.5,5340-2610.3c-88-11.5-202.8-21.1-252.6-21.1h-91.8v-155v-156.9l187.5,13.4c759.7,55.5,1431.3,363.6,1974.8,908.9c262.1,264.1,421,480.3,574.1,780.7c103.3,202.8,112.9,244.9,63.1,260.2c-19.1,3.8-78.4,26.8-132,47.8l-99.5,40.2L7473.6-1077.5z"/></g></g>
</svg>